<svg xmlns="http://www.w3.org/2000/svg" width="300" height="300" viewBox="0 0 300 300">
  <g fill="none" fill-rule="evenodd">
    <circle cx="100" cy="100" r="100" fill="#F3F6FA" transform="translate(50 50)"/>
    <path fill="#FFF" d="M201.8623,147.1714 C201.8623,175.1394 179.1893,197.8124 151.2213,197.8124 C123.2533,197.8124 100.5803,175.1394 100.5803,147.1714 C100.5803,119.2034 123.2533,96.5304 151.2213,96.5304 C179.1893,96.5304 201.8623,119.2034 201.8623,147.1714"/>
    <path fill="#17479E" d="M150,57.1998 C201.17,57.1998 242.8,98.8298 242.8,149.9998 C242.8,201.1698 201.17,242.7998 150,242.7998 C98.83,242.7998 57.2,201.1698 57.2,149.9998 C57.2,139.898115 58.8061564,129.997715 61.9787583,120.525626 L53.76,116.7733 L71.304,104.2793 L73.355,125.7183 L65.2724871,122.029154 C62.3030698,131.022943 60.8,140.416576 60.8,149.9998 C60.8,199.1848 100.815,239.1998 150,239.1998 C199.185,239.1998 239.2,199.1848 239.2,149.9998 C239.2,100.8148 199.185,60.7998 150,60.7998 C131.492,60.7998 113.742,66.4158 98.669,77.0398 C97.856,77.6128 96.733,77.4178 96.161,76.6058 C95.588,75.7938 95.782,74.6708 96.595,74.0978 C112.278,63.0428 130.745,57.1998 150,57.1998 Z M163.8801,96.1098 C169.0701,97.3298 174.0101,99.3298 178.5601,102.0598 C180.6801,103.3198 182.7101,104.7498 184.6201,106.2998 C185.3901,106.9298 185.5101,108.0698 184.8801,108.8398 C184.2501,109.6098 183.1201,109.7198 182.3501,109.0998 C180.5701,107.6498 178.6801,106.3198 176.7201,105.1398 C172.4801,102.6098 167.8901,100.7498 163.0501,99.6198 C158.2401,98.4898 153.2901,98.0998 148.3301,98.4598 C144.0001,98.7698 139.7101,99.6598 135.6101,101.0998 C131.4401,102.5598 127.4901,104.5798 123.8501,107.0998 C121.6301,108.6398 119.5001,110.3798 117.5401,112.2798 C114.6701,115.0498 112.1401,118.1498 110.0301,121.4898 C107.8201,124.9698 106.0601,128.7198 104.7901,132.6398 C103.2201,137.4698 102.4101,142.4898 102.3801,147.5598 C102.3601,151.4998 102.8001,155.4198 103.7101,159.2198 C104.7601,163.5798 106.4001,167.7498 108.5901,171.6398 C110.5801,175.1498 113.0201,178.4198 115.8501,181.3498 C119.4001,185.0298 123.4701,188.0898 127.9501,190.4498 C128.4101,190.6898 128.8701,190.9298 129.3301,191.1498 C130.5601,191.7498 131.8201,192.2998 133.1001,192.7798 C133.6101,192.9798 134.1201,193.1598 134.6301,193.3398 C136.8601,194.1198 139.1601,194.7298 141.5001,195.1798 L141.6801,195.2098 L141.6801,195.2098 C143.4001,195.5298 145.1301,195.7498 146.8601,195.8798 C148.1101,195.9698 149.3701,196.0198 150.6201,196.0198 C151.9301,196.0198 153.2301,195.9598 154.5401,195.8598 C155.0801,195.8098 155.6301,195.7598 156.1801,195.6998 C156.8901,195.6198 157.5901,195.5198 158.2901,195.4098 C158.8801,195.3098 159.4601,195.2098 160.0401,195.0898 C162.4801,194.6198 164.8701,193.9598 167.2001,193.1198 C167.7501,192.9298 168.3001,192.7198 168.8401,192.4998 C170.1401,191.9798 171.4201,191.3998 172.6801,190.7698 C173.3101,190.4498 173.9301,190.1198 174.5401,189.7798 C178.3001,187.6898 181.7801,185.0898 184.9101,182.0698 C189.8501,177.2998 193.6801,171.6898 196.2901,165.3998 C199.3401,158.0798 200.5701,150.0498 199.8801,142.1698 C199.2801,135.4398 197.3501,129.0598 194.1301,123.1998 C193.6501,122.3298 193.9601,121.2398 194.8301,120.7598 C195.7101,120.2798 196.8001,120.5998 197.2801,121.4698 C200.7401,127.7698 202.8201,134.6198 203.4601,141.8498 C204.2101,150.3098 202.8801,158.9298 199.6201,166.7798 C196.8201,173.5298 192.7101,179.5398 187.4101,184.6598 C184.0601,187.8998 180.3201,190.6798 176.3001,192.9198 C175.8201,193.1898 175.3301,193.4498 174.8401,193.6998 C173.8001,194.2398 172.7301,194.7498 171.6601,195.2098 L172.461831,194.856138 C173.262925,194.493325 174.0598,194.1052 174.8398,193.7002 C175.0198,194.1802 175.0998,194.6902 175.0998,195.2202 C175.0998,196.1502 174.8398,197.0202 174.3498,197.8202 C174.8401,198.6198 175.1001,199.4898 175.1001,200.4198 C175.1001,203.9098 171.4101,206.4698 166.1001,208.0598 C166.099771,208.0599 166.099441,208.059999 166.099112,208.060099 C163.84,213.7799 158.6,217.7999 152.52,217.7999 C146.71,217.7999 141.67,214.1299 139.26,208.8099 C139.259849,208.80957 139.259699,208.809239 139.259548,208.808909 C132.439101,207.339245 127.3501,204.509399 127.3501,200.4198 C127.3501,199.4798 127.6101,198.6198 128.1001,197.8198 C127.6098,197.0202 127.3498,196.1502 127.3498,195.2202 C127.3498,194.8802 127.3798,194.5602 127.4598,194.2402 C128.3998,194.7102 129.3498,195.1502 130.3098,195.5402 L130.3098,195.5402 L130.3101,195.5398 C129.3501,195.1498 128.4001,194.7098 127.4601,194.2398 C127.0601,194.0498 126.6601,193.8498 126.2701,193.6398 C121.4501,191.0898 117.0801,187.7998 113.2601,183.8498 C110.2201,180.6998 107.6001,177.1898 105.4601,173.4098 C103.1001,169.2298 101.3401,164.7398 100.2101,160.0598 C99.2401,155.9698 98.7501,151.7598 98.7801,147.5398 C98.8101,142.0998 99.6801,136.7098 101.3601,131.5298 C102.7301,127.3198 104.6201,123.2998 106.9901,119.5598 C109.2501,115.9798 111.9601,112.6598 115.0401,109.6898 C117.1401,107.6498 119.4201,105.7898 121.8001,104.1398 C125.7001,101.4398 129.9501,99.2698 134.4201,97.7098 C138.8201,96.1598 143.4201,95.2098 148.0701,94.8698 C153.4001,94.4798 158.7101,94.8998 163.8801,96.1098 Z M161.5201,209.1398 C158.2901,209.7198 154.7501,210.0098 151.2201,210.0098 C148.7301,210.0098 146.2401,209.8598 143.8501,209.5698 C143.84943,209.56972 143.84876,209.56964 143.84809,209.56956 C145.89,212.3899 149.02,214.1999 152.52,214.1999 C156.2,214.1999 159.47,212.2099 161.52,209.1399 L161.52,209.1399 Z M171.4901,200.5398 C167.0398,203.3602 159.0998,204.8102 151.2198,204.8102 C143.3498,204.8102 135.4098,203.3602 130.9598,200.5402 C131.092564,201.911423 133.642216,203.590389 138.0201,204.8098 C139.1901,205.1398 140.4901,205.4298 141.9101,205.6698 L141.9101,205.6698 L141.9201,205.6698 C144.6201,206.1298 147.7401,206.4098 151.2201,206.4098 C155.9701,206.4098 160.0501,205.8898 163.2901,205.1098 C163.910269,204.958948 164.498833,204.799317 165.054319,204.632377 C165.824837,204.400862 166.531149,204.155441 167.17,203.8999 L166.991,203.9689 L167.1701,203.8998 C169.76047,202.86943 171.265902,201.690692 171.472088,200.658261 L171.4901,200.5398 L171.4901,200.5398 Z M171.4901,195.2898 C170.0701,195.9098 168.6201,196.4598 167.1501,196.9298 C163.9101,198.0198 160.5801,198.7798 157.1601,199.1998 C156.9701,199.2298 156.7801,199.2498 156.5901,199.2698 C154.5801,199.4998 152.5601,199.6198 150.5401,199.6198 C150.0301,199.6198 149.5301,199.6098 149.0201,199.5998 C149.0001,199.5998 148.9701,199.5998 148.9401,199.5898 C146.2301,199.5098 143.5101,199.2198 140.8301,198.7198 C138.7501,198.3298 136.7101,197.8098 134.7101,197.1698 C133.5001,196.7798 132.3101,196.3498 131.1401,195.8798 L131.215537,196.015387 C131.57209,196.605361 132.312957,197.225514 133.3901,197.8198 L133.3901,197.8198 C136.6198,199.6102 142.9098,201.2102 151.2198,201.2102 C159.5398,201.2102 165.8398,199.6102 169.0698,197.8202 L169.0698,197.8202 C169.104563,197.800654 169.13868,197.781488 169.172451,197.762303 C169.30166,197.689115 169.425146,197.615826 169.543532,197.542354 C169.766423,197.403812 169.97098,197.265024 170.156959,197.126179 C170.34433,196.986463 170.51298,196.846384 170.662177,196.706846 C171.022559,196.369678 171.269336,196.036067 171.394957,195.714067 C171.450883,195.570253 171.482788,195.42869 171.4898,195.2902 C171.490153,195.290082 171.490506,195.289964 171.490858,195.289846 L171.4901,195.2898 Z M114.9253,134.2723 C115.8313,134.6803 116.2353,135.7463 115.8263,136.6533 C114.6833,139.1913 113.7503,141.8473 113.0523,144.5473 C112.8433,145.3593 112.1123,145.8983 111.3113,145.8983 C111.1623,145.8983 111.0113,145.8793 110.8603,145.8403 C109.8973,145.5923 109.3193,144.6103 109.5673,143.6483 C110.3153,140.7493 111.3173,137.8983 112.5443,135.1743 C112.9523,134.2673 114.0193,133.8653 114.9253,134.2723 Z M134.5613,113.2323 C135.0913,114.0733 134.838443,115.1843 133.9973,115.7143 C132.0573,116.9353 130.1923,118.3073 128.4543,119.7893 C124.7013,122.9903 121.4713,126.7523 118.8533,130.9693 C118.5123,131.5183 117.9243,131.8203 117.3223,131.8203 C116.9983,131.8203 116.6703,131.7333 116.3743,131.5493 C115.5303,131.0253 115.2703,129.9153 115.7943,129.0703 C118.6093,124.5373 122.0823,120.4933 126.1173,117.0503 C127.9873,115.4563 129.9923,113.9813 132.0793,112.6683 C132.9193,112.1373 134.0313,112.390471 134.5613,113.2323 Z M185.4599,109.57 C186.1699,108.88 187.3099,108.9 187.9999,109.62 L187.9999,109.62 L195.1499,117.02 C195.8399,117.74 195.8199,118.88 195.0999,119.57 C194.7499,119.9 194.2999,120.07 193.8499,120.07 C193.3799,120.07 192.9099,119.89 192.5599,119.52 L192.5599,119.52 L185.4099,112.12 C184.7199,111.4 184.7399,110.27 185.4599,109.57 Z M228.3882,56.5589 C229.3822,56.5589 230.1882,57.3639 230.1882,58.3589 L230.188,63.8149 L235.645,63.8155 C236.639,63.8155 237.445,64.6215 237.445,65.6155 C237.445,66.6095 236.639,67.4155 235.645,67.4155 L230.188,67.4149 L230.1882,72.8729 C230.1882,73.8669 229.3822,74.6729 228.3882,74.6729 C227.3942,74.6729 226.5882,73.8669 226.5882,72.8729 L226.588,67.4149 L221.131,67.4155 C220.137,67.4155 219.331,66.6095 219.331,65.6155 C219.331,64.6215 220.137,63.8155 221.131,63.8155 L226.588,63.8149 L226.5882,58.3589 C226.5882,57.3639 227.3942,56.5589 228.3882,56.5589 Z"/>
    <path fill="#FFD200" d="M68.1187,220.2532 C69.1127,220.2532 69.9187,221.0592 69.9187,222.0532 L69.918,227.509491 L75.376,227.5099 C76.37,227.5099 77.176,228.3159 77.176,229.3099 C77.176,230.3039 76.37,231.1099 75.376,231.1099 L69.918,231.109491 L69.9187,236.5672 C69.9187,237.5612 69.1127,238.3672 68.1187,238.3672 C67.1247,238.3672 66.3187,237.5612 66.3187,236.5672 L66.318,231.109491 L60.861,231.1099 C59.867,231.1099 59.062,230.3039 59.062,229.3099 C59.062,228.3159 59.867,227.5099 60.861,227.5099 L66.318,227.509491 L66.3187,222.0532 C66.3187,221.0592 67.1247,220.2532 68.1187,220.2532 Z M138.4199,160.04 C138.9899,159.6 139.7599,159.53 140.3999,159.88 L140.3999,159.88 L152.3699,166.39 L161.9099,159.97 C162.5099,159.56 163.2999,159.56 163.8999,159.96 C164.5099,160.36 164.8099,161.08 164.6799,161.8 L164.6799,161.8 L158.2899,195.41 C157.5899,195.52 156.8899,195.62 156.1799,195.7 C155.6299,195.76 155.0799,195.81 154.5399,195.86 L154.5399,195.86 L160.3399,165.36 L153.4699,169.98 C152.9199,170.35 152.1999,170.39 151.6099,170.07 L151.6099,170.07 L142.3499,165.04 L150.6199,196.02 C149.3699,196.02 148.1099,195.97 146.8599,195.88 L146.8599,195.88 L137.7999,161.92 C137.6099,161.23 137.8599,160.49 138.4199,160.04 Z"/>
  </g>
</svg>
